<?xml version="1.0" encoding="utf-8"?>
<!-- Generator: Adobe Illustrator 25.0.0, SVG Export Plug-In . SVG Version: 6.00 Build 0)  -->
<svg version="1.1" id="Layer_1" xmlns="http://www.w3.org/2000/svg" xmlns:xlink="http://www.w3.org/1999/xlink" x="0px" y="0px"
	 viewBox="0 0 2800 2000" style="enable-background:new 0 0 2800 2000;" xml:space="preserve">
<style type="text/css">
	.st0{fill:#F7CC7F;}
	.st1{fill:#F47458;}
	.st2{fill:#B75742;}
	.st3{fill:#13375B;}
	.st4{fill:#466EB6;}
	.st5{fill:#355389;}
	.st6{fill:#EFEFEF;}
	.st7{fill:#F48C7F;}
	.st8{fill:#184655;}
	.st9{fill:#3C8F7C;}
	.st10{fill:#96D9C9;}
	.st11{fill:#D27843;}
	.st12{fill:#F7A491;}
	.st13{fill:#FAE0B2;}
	.st14{fill:#020202;}
	.st15{fill:#FFD09F;}
	.st16{fill:#FFB769;}
	.st17{fill:#FF7700;}
	.st18{fill:#FFFFFF;}
	.st19{fill:#9C7248;}
	.st20{fill:#86B1F2;}
	.st21{fill:#50BFA5;}
	.st22{fill:#9BC1F9;}
	.st23{fill:#F8A492;}
	.st24{fill:#07345A;}
</style>
<g>
	<g>
		<path class="st0" d="M638.22,910.39c1.36,0.59,2.8,0.94,4.27,1.15c-0.5-3.27,0.04-7.24,3.11-11.52c-1.24-1.59-2.47-3.19-3.71-4.79
			C639.3,898.65,636.27,904.3,638.22,910.39z"/>
		<path class="st0" d="M666.35,915.73c-4.88-6.59-10.11-13.49-15.3-20.35c-0.37,0.17-0.61,0.29-0.56,0.27
			c-1.99,1.2-2.19,1.44-2.18,1.43c-1.28,1.03-2.05,2.05-2.05,2.04c-0.24,0.3-0.46,0.6-0.67,0.9c5.73,7.39,11.45,14.66,16.64,21.34
			C663.92,919.72,665.31,917.79,666.35,915.73z"/>
		<path class="st0" d="M683.17,950.97c-0.02-0.06,3.28,6.96-0.29,11.01c0,0-3.96,4.75-7.15-1.52c0.01,0.01-0.31-0.42-0.32-0.43
			c-0.7-0.93-2.01-1.16-3.02-0.5c-1.07,0.7-1.2,2.01-0.73,3.18c0.25,0.65,0.77,1.64,2.1,2.73c7.8,6.39,17.29-1.74,16.18-11.03
			c-0.65-5.77-8.38-17.75-18.63-31.92c-1.34,1.72-2.82,3.37-4.42,4.87C675.4,938.46,681.79,947.22,683.17,950.97z"/>
		<path class="st0" d="M662.24,921.37c1.6,2.06,3.15,4.06,4.63,5.99c1.6-1.5,3.08-3.14,4.42-4.87c-1.59-2.2-3.25-4.46-4.95-6.76
			C665.31,917.79,663.92,919.72,662.24,921.37z"/>
		<path class="st0" d="M641.9,895.23c1.59-2.1,3.02-3.36,3.02-3.36c0.73-0.62,1.47-1.18,2.22-1.67
			c-4.47-5.92-8.82-11.74-12.79-17.22c-1.01,3.19-1.84,6.19-2.51,9.01C635.08,886.33,638.47,890.78,641.9,895.23z"/>
		<path class="st0" d="M625.19,872.92c2.11,2.94,4.34,5.97,6.64,9.06c0.67-2.82,1.5-5.82,2.51-9.01c-2.27-3.13-4.42-6.15-6.39-9.02
			C627.12,866.96,626.17,869.94,625.19,872.92z"/>
		<path class="st0" d="M639.73,924.08c-3.03-1.56-15.5-10.29-7.9-42.1c-2.3-3.08-4.52-6.11-6.64-9.06
			c-1.15,3.51-2.33,7.02-3.37,10.55c-2.51,8.53-4.64,17.64-3.4,26.39c1.61,11.4,9.89,19.72,20.14,23.7
			c5.33,2.07,11.4,2.65,17.07,0.74c4.17-1.4,7.97-3.88,11.24-6.95c-1.48-1.93-3.03-3.93-4.63-5.99
			C657.02,926.46,648.98,928.84,639.73,924.08z"/>
		<path class="st0" d="M627.81,831.72c-7.09-3.73-22.11-4.07-20.86,9.06c0.56,5.94,8.1,18.02,18.24,32.14
			c0.98-2.98,1.93-5.96,2.76-8.97c-10.1-14.68-15.64-25.32-9.91-26.01c3.4-0.41,7.65,1.31,10.24,5.36
			c2.77,4.32,2.08,10.14,1.04,15.1c-0.39,1.87-0.86,3.72-1.37,5.56c1.97,2.87,4.12,5.89,6.39,9.02c0.43-1.37,0.9-2.78,1.4-4.23
			c3.15-9.09,3.65-20.19,1.36-26.21C637.11,842.55,634.73,835.36,627.81,831.72z"/>
		<path class="st0" d="M653.19,894.58c-0.39,0.1,2.74-0.89,5.61-0.41c-1.18-0.16,6.05-0.21,8.93,8.03
			c1.46,4.18,0.82,9.16-1.38,13.54c1.7,2.3,3.35,4.55,4.95,6.76c0.22-0.28,0.43-0.56,0.64-0.84c15.26-20.69-7.38-42.96-24.8-31.46
			c1.3,1.72,2.61,3.45,3.92,5.18C651.64,895.11,652.56,894.71,653.19,894.58z"/>
		<path class="st0" d="M641.9,895.23c1.23,1.6,2.47,3.2,3.71,4.79c0.21-0.3,0.43-0.6,0.67-0.9c-0.01,0.01,0.77-1.02,2.05-2.04
			c-0.01,0.01,0.19-0.23,2.18-1.43c-0.05,0.02,0.19-0.1,0.56-0.27c-1.31-1.73-2.62-3.46-3.92-5.18c-0.75,0.5-1.49,1.05-2.22,1.67
			C644.92,891.86,643.49,893.12,641.9,895.23z"/>
		<path class="st0" d="M649.2,906.31c3.11,3.33,3.71,7.83,1.34,10.04c-2.37,2.22-6.82,1.31-9.93-2.02
			c-3.11-3.33-3.71-7.83-1.34-10.04C641.64,902.08,646.09,902.98,649.2,906.31z"/>
		<path class="st0" d="M681.14,956.31c3.11,3.33,3.71,7.83,1.34,10.05c-2.37,2.22-6.82,1.31-9.93-2.02
			c-3.11-3.33-3.71-7.83-1.34-10.04C673.58,952.08,678.02,952.98,681.14,956.31z"/>
	</g>
	<rect x="1485.45" y="1100.89" class="st1" width="134.67" height="265.24"/>
	<path class="st2" d="M1620.12,1238.16c-1.19-0.03-2.39-0.04-3.59-0.04h-131.07v128.02h134.67V1238.16z"/>
	<path class="st1" d="M1318.91,1563.72v-158.59c0-76.09,61.68-137.77,137.77-137.77h165.46c76.09,0,137.77,61.68,137.77,137.77
		v158.59c0,76.09-61.68,137.77-137.77,137.77h-165.46C1380.59,1701.49,1318.91,1639.8,1318.91,1563.72z"/>
	<path class="st2" d="M1374.21,1550.48v-125.24c0-57.82,46.87-104.7,104.7-104.7h121c57.82,0,104.69,46.87,104.69,104.7v125.24
		c0,57.82-46.87,104.7-104.69,104.7h-121C1421.09,1655.17,1374.21,1608.3,1374.21,1550.48z"/>
	<g>
		<circle class="st1" cx="1487.75" cy="1423.33" r="10.61"/>
		
			<ellipse transform="matrix(0.3827 -0.9239 0.9239 0.3827 -367.3748 2296.8354)" class="st1" cx="1535.04" cy="1423.33" rx="10.61" ry="10.61"/>
		
			<ellipse transform="matrix(0.9871 -0.1602 0.1602 0.9871 -207.5599 271.841)" class="st1" cx="1582.33" cy="1423.33" rx="10.61" ry="10.61"/>
	</g>
	<g>
		<circle class="st1" cx="1487.75" cy="1461.84" r="10.61"/>
		
			<ellipse transform="matrix(0.3827 -0.9239 0.9239 0.3827 -402.9595 2320.6123)" class="st1" cx="1535.04" cy="1461.84" rx="10.61" ry="10.61"/>
		
			<ellipse transform="matrix(0.9871 -0.1602 0.1602 0.9871 -213.7296 272.3384)" class="st1" cx="1582.33" cy="1461.84" rx="10.61" ry="10.61"/>
	</g>
	<g>
		<path class="st1" d="M1487.75,1489.74c-5.86,0-10.61,4.75-10.61,10.62c0,5.86,4.75,10.61,10.61,10.61s10.61-4.75,10.61-10.61
			C1498.36,1494.5,1493.61,1489.74,1487.75,1489.74z"/>
		<path class="st1" d="M1535.04,1489.74c-5.86,0-10.61,4.75-10.61,10.62c0,5.86,4.75,10.61,10.61,10.61
			c5.86,0,10.61-4.75,10.61-10.61C1545.65,1494.5,1540.9,1489.74,1535.04,1489.74z"/>
		<path class="st1" d="M1582.33,1489.74c-5.86,0-10.61,4.75-10.61,10.62c0,5.86,4.75,10.61,10.61,10.61s10.61-4.75,10.61-10.61
			C1592.95,1494.5,1588.2,1489.74,1582.33,1489.74z"/>
	</g>
	<g>
		<path class="st3" d="M940.95,1701.49L940.95,1701.49c0,2.77,2.67,5.01,5.96,5.01h1485.67c3.29,0,5.96-2.25,5.96-5.01l0,0
			c0-2.77-2.67-5.01-5.96-5.01H946.91C943.62,1696.47,940.95,1698.72,940.95,1701.49z"/>
	</g>
	<g>
		<g>
			<g>
				<path class="st4" d="M1319.16,1697.46c0,0,138.27,4.72,168.59-9.66c30.32-14.37,0.92-33.36,0.92-33.36s65.7-15.58,70.02-36.08
					c4.32-20.5-27.21-17.28-27.21-17.28s62.93-43.99,53.91-57.49c-16.81-25.16-87.96,19.16-87.96,19.16s23.68-23.57,6.99-32.32
					c-25.18-13.2-61.75,50.28-61.75,50.28s1.83-15.37-17.54-16.31C1390.38,1562.71,1319.16,1697.46,1319.16,1697.46z"/>
			</g>
			<path class="st5" d="M1423.91,1553.33c19.37,0.94,18.75,27.38,18.75,27.38s36.83-74.99,62.01-61.79
				c16.7,8.75-1.43,40.32-1.43,40.32s65.34-40.8,82.14-15.65l-254.66,144.22C1338.95,1672.03,1391.46,1551.75,1423.91,1553.33z"/>
		</g>
		<g>
			<g>
				<path class="st4" d="M1313.99,1697.49c0,0,118.97-82.77,136.08-119.16c17.11-36.39-15.66-33.36-15.66-33.36
					s48.94-64.44,37.32-86.71s-38.34,4.72-38.34,4.72s24.75-88.63,6.12-94.26c-34.71-10.48-68.67,101.75-68.67,101.75
					s-12.96-62.09-35.08-57.48c-33.35,6.96-0.07,98.75-0.07,98.75s-9.84-29.9-28.48-16.03
					C1273.76,1520.6,1313.99,1697.49,1313.99,1697.49z"/>
			</g>
			<path class="st5" d="M1274.67,1497.15c21-9.94,25.22-30.84,25.22-30.84s0.14-51.91,33.5-58.86c22.12-4.61,37.6,37.09,37.6,37.09
				s33.82-86.29,68.53-75.81l-125.88,327.38C1309.24,1675.23,1249.65,1508.98,1274.67,1497.15z"/>
		</g>
	</g>
	<g>
		<g>
			<g>
				<path class="st5" d="M748.19,1711.98c0,0-284.55-149.25-335.25-227.27c-50.69-78.02,11.19-84.39,11.19-84.39
					s-132.47-132.29-112.86-186.98c19.61-54.69,89.36-1.26,89.36-1.26s-84.66-195.34-43.72-214.11
					c76.26-34.96,179.83,173.1,179.83,173.1s-21.66-90.08,30.48-86.47c78.64,5.44,72.71,208.48,72.71,208.48s9.92-77.75,57.02-51.83
					C781.46,1287.76,748.19,1711.98,748.19,1711.98z"/>
			</g>
			<path class="st4" d="M714.49,1210.07c-36.77-21.04-74.45,38.54-74.45,38.54s5.83-158.57-72.81-164.01
				c-52.15-3.61-30.48,86.47-30.48,86.47s-103.58-208.07-179.83-173.1l391.67,710.71C752.06,1659.46,787.33,1251.76,714.49,1210.07z
				"/>
		</g>
		<g>
			<g>
				<path class="st5" d="M745.78,1711.12c0,0-246.71,23.75-309.62-5.22c-62.91-28.97-16.36-61.32-16.36-61.32
					s-135.95-30.64-145.34-72.86c-9.39-42.22,55.75-36.3,55.75-36.3s-130.91-89.33-112.59-117.42
					c34.11-52.31,181.99,37.52,181.99,37.52s-49.43-48.1-15.17-66.55c51.67-27.82,128.61,102.35,128.61,102.35
					s-4.13-31.68,35.82-34.07C620.54,1452.94,745.78,1711.12,745.78,1711.12z"/>
			</g>
			<path class="st4" d="M551.11,1434.37c-39.95,2.4-38.07,56.94-38.07,56.94s-77.74-153.94-129.41-126.11
				c-34.26,18.45,3.88,83.19,3.88,83.19s-135.79-82.71-169.9-30.4l528.95,291.78C729.2,1677.4,618.06,1430.36,551.11,1434.37z"/>
		</g>
	</g>
	<g>
		<g>
			<path class="st0" d="M1820.79,680.31c-6.57,23.02-30.54,36.35-53.56,29.79c-23.01-6.57-36.35-30.55-29.78-53.57
				c6.57-23.02,30.54-36.35,53.56-29.79C1814.03,633.31,1827.36,657.29,1820.79,680.31z"/>
			<path class="st6" d="M1754.96,668.66c-3.51,12.31,3.62,25.13,15.92,28.64c12.3,3.51,25.13-3.62,28.64-15.92L1754.96,668.66z"/>
		</g>
	</g>
	<polygon class="st7" points="1599.27,408.4 1575.36,406.47 1572.09,428.6 1548.45,427.73 1542.72,448.49 1524.92,450.74 
		1526.06,459.75 1549.87,456.74 1555.29,437.07 1579.89,437.97 1583.1,416.21 1604.77,417.96 	"/>
	<polygon class="st7" points="690.18,697.43 689.01,711.99 665.37,712.7 661.03,733.79 643.41,737.21 645.15,746.12 668.7,741.55 
		672.81,721.56 697.41,720.83 699.18,698.91 	"/>
	<path class="st8" d="M1321.13,1699.78h-326.4c-16.95,0-30.69-13.74-30.69-30.69v-637.5c0-16.95,13.74-30.69,30.69-30.69h326.4
		c16.95,0,30.69,13.74,30.69,30.69v637.5C1351.82,1686.04,1338.08,1699.78,1321.13,1699.78z"/>
	<path class="st9" d="M994.72,1675.11c-3.32,0-6.02-2.7-6.02-6.02v-637.5c0-3.32,2.7-6.02,6.02-6.02h326.4
		c3.32,0,6.02,2.7,6.02,6.02v637.5c0,3.32-2.7,6.02-6.02,6.02H994.72z"/>
	<g>
		
			<ellipse transform="matrix(0.9659 -0.259 0.259 0.9659 -250.6962 339.9565)" class="st5" cx="1164.96" cy="1121.5" rx="59.07" ry="59.07"/>
		<path class="st8" d="M1185.56,1121.5c0,11.38-9.23,20.61-20.6,20.61s-20.6-9.23-20.6-20.61c0-11.38,9.23-20.6,20.6-20.6
			S1185.56,1110.12,1185.56,1121.5z"/>
	</g>
	<g>
		
			<ellipse transform="matrix(0.7071 -0.7071 0.7071 0.7071 -613.6242 1219.2559)" class="st5" cx="1164.96" cy="1350.34" rx="83.74" ry="83.74"/>
		<path class="st8" d="M1194.17,1350.34c0,16.13-13.08,29.21-29.21,29.21s-29.21-13.08-29.21-29.21c0-16.13,13.08-29.21,29.21-29.21
			S1194.17,1334.21,1194.17,1350.34z"/>
	</g>
	<g>
		
			<ellipse transform="matrix(0.9935 -0.1142 0.1142 0.9935 -171.0224 142.4312)" class="st5" cx="1157.92" cy="1564.26" rx="83.74" ry="83.74"/>
		
			<ellipse transform="matrix(0.0317 -0.9995 0.9995 0.0317 -442.254 2672.0076)" class="st8" cx="1157.92" cy="1564.26" rx="29.21" ry="29.21"/>
	</g>
	<g>
		<path class="st10" d="M2014.21,709.83l19.08,1.95c0.97,0.1,1.83,0.66,2.3,1.51l9.18,16.55c1.18,2.12,4.32,2,5.32-0.21l7.78-17.24
			c0.4-0.88,1.21-1.51,2.17-1.68l18.85-3.47c2.42-0.45,3.27-3.42,1.44-5.04l-14.27-12.6c-0.73-0.64-1.08-1.59-0.96-2.55l2.47-18.7
			c0.32-2.4-2.3-4.11-4.43-2.9l-16.6,9.45c-0.84,0.48-1.88,0.52-2.76,0.11l-17.33-8.09c-2.22-1.04-4.69,0.88-4.18,3.25l4.01,18.44
			c0.2,0.94-0.07,1.92-0.75,2.62l-13.18,13.7C2010.67,706.68,2011.77,709.58,2014.21,709.83z"/>
		<path class="st0" d="M907.06,923.41l19.08,1.95c0.97,0.1,1.83,0.66,2.3,1.51l9.18,16.55c1.18,2.12,4.32,2,5.32-0.21l7.78-17.24
			c0.4-0.88,1.21-1.51,2.17-1.68l18.85-3.47c2.42-0.45,3.27-3.42,1.44-5.04l-14.27-12.6c-0.73-0.64-1.09-1.59-0.96-2.55l2.47-18.7
			c0.32-2.4-2.3-4.11-4.43-2.9l-16.6,9.45c-0.85,0.48-1.88,0.52-2.76,0.11l-17.33-8.09c-2.22-1.04-4.69,0.88-4.18,3.25l4.01,18.44
			c0.2,0.94-0.07,1.92-0.75,2.62l-13.18,13.7C903.52,920.26,904.61,923.16,907.06,923.41z"/>
		<path class="st0" d="M2002.18,910.23l19.08,1.95c0.97,0.1,1.83,0.66,2.3,1.51l9.18,16.55c1.18,2.12,4.32,2,5.32-0.21l7.78-17.24
			c0.4-0.88,1.21-1.51,2.17-1.68l18.85-3.47c2.42-0.45,3.27-3.42,1.44-5.04l-14.27-12.6c-0.73-0.64-1.09-1.59-0.96-2.55l2.47-18.7
			c0.32-2.4-2.3-4.11-4.43-2.9l-16.6,9.45c-0.85,0.48-1.88,0.52-2.76,0.11l-17.33-8.09c-2.22-1.04-4.69,0.88-4.17,3.25l4.01,18.44
			c0.21,0.94-0.07,1.92-0.75,2.62l-13.18,13.7C1998.64,907.08,1999.74,909.98,2002.18,910.23z"/>
	</g>
	<g>
		<g>
			<path class="st11" d="M1922.73,1272.64c-0.84,0.35,11.08,15.71,22.69,26.57c9.36,11.75,18.14,25.65,21.16,40.82
				c4.59,23.05,0.77,136.95,4.77,145.06c34.35,33.58,59.23,117.87,66.21,143.59c1.36,5.01,4.12,9.53,7.94,13.04l0,0l-1.53,29.06
				l-17.07,15.72c0,0,3.8-23.68-3.79-41.24c0,0-86.49-130.99-91.63-141c-9.81-28.51-45.53-174.6-45.53-174.6l-8.29-33.58
				C1877.67,1296.08,1922.66,1272.67,1922.73,1272.64z"/>
			<path class="st11" d="M2064.21,1651.06c0,0-10.8,16.65-11.73,23.14c-0.92,6.49-6.68,21.2-13.04,22.14
				c-1.45,0.21-26.2,2.03-26.02-1.07c0.14-2.36,9.1-5.74,13.26-8.61c7.19-4.97,18.35-45.42,18.35-45.42
				S2063.74,1645.88,2064.21,1651.06z"/>
		</g>
		<path class="st11" d="M1848.8,1323.12c0,0-55.71,119.12-56.06,140.06c-0.3,17.95,9.74,118.67,6.93,202.55
			c-0.1,3.03-3.94,7.05-9.52,9.61c-3.14,1.44-17.95,8.7-17.95,8.7l-2.45,4.94l52.25-3.72l1.07-12.11l-0.32-2.15
			c0,0,20.79-125.47,18.67-160.96c-0.33-5.57-3.04-38.95-3.04-38.95l62.83-121.3l-39.52-51.92L1848.8,1323.12z"/>
		<g>
			<path class="st3" d="M1976.5,1466.21c-0.01,0.02-0.02,0.02-0.02,0C1976.48,1466.2,1976.5,1466.21,1976.5,1466.21z"/>
			<path class="st3" d="M1780.63,1409.78l109.34-157.97c6.75,2.73,13.12,5.11,20.33,6.5c15.68,3.03,31.38,2.54,47.25,2.02
				c0,0.59,0.03,1.11,0.09,1.55c1.83,13.02,19.1,33.19,22.66,72.71c4.04,44.86,1.6,122.78,0.23,127.89
				C1907.84,1453.65,1801.25,1431.42,1780.63,1409.78z"/>
		</g>
		<path class="st12" d="M1923.38,1041.25c-0.43,4.61-2.88,8.13-5.46,7.87c-2.58-0.26-4.32-4.21-3.88-8.82
			c0.43-4.61,2.88-8.13,5.46-7.87C1922.07,1032.69,1923.81,1036.64,1923.38,1041.25z"/>
		<path class="st1" d="M1823.57,1697.03h-68.54c-2.44-0.22-3.07-3.29-1.7-4.67c2.16-2.16,10.22-4.33,18.87-8.32
			c15.18,1.58,48.47-7.43,50.87-10.91C1824.45,1680.09,1824.93,1696.73,1823.57,1697.03z"/>
		<path class="st11" d="M1757.21,1128.55c0.33-0.88,1.13-0.17,2.12,1.3c-1.27-5.36-1.1-12.07-0.09-12.67
			c1.24-0.74,1.96,8.63,4.72,13.7c2.76,5.07,5.28,11.33,5.66,11.05c0.62-0.44-3.25-7.26-5.97-12.47
			c-2.72-5.21-0.64-29.14,1.89-11.98c2.54,17.16,19.13,30.27,19.61,25.01c0.49-5.26-2.3-13.23,1.12-12.06
			c3.42,1.17,4.41,12.94,7.42,21.46c0.35,0.98,0.38,4,0.36,7.53c-0.01,1.84,1.14,3.49,2.87,4.12l43.61,15.86l28.48-49.6l32.21,6.87
			c0,0-25.91,67.4-47.99,77.56c-10.07,4.63-57.13-28.36-75.63-43.97C1759.27,1154.81,1755.79,1132.31,1757.21,1128.55z"/>
		<path class="st0" d="M1883.13,1098.65c-11.37,5.42-40.38,72.75-40.38,72.75l37.31,22.88l11.76-34.24
			C1891.82,1160.03,1897.12,1091.97,1883.13,1098.65z"/>
		<path d="M1893.87,1043.88c-5.54-13.76-11.02-27.61-4.77-44.51c5.05-13.67,16.09-22.71,29.93-26.33
			c39.22-10.26,38.62,16.22,95.36,10.67c58.69-5.73,82.26,58.07,76.83,79.18c-25.98,101.02-142.63,51.8-158.43,35.05
			C1921.04,1085.48,1897.44,1052.73,1893.87,1043.88z"/>
		<path class="st0" d="M1970.96,1093.01c0,0,6.31-0.29,23.34,7.49c17.02,7.78,53.51,58.37,53.51,58.37l-29.72,23.13l-50.91-33.3
			C1967.17,1148.7,1960.72,1093.01,1970.96,1093.01z"/>
		<path class="st13" d="M1880.06,1260.23c17.52,9.31,84.92,7.8,84.92,7.8c1.67-17.52,10.6-64.43,14.5-102.11
			c4.9-26.23-3.19-33.75-8.53-72.91c-0.04-0.26-27.18-2.16-27.18-2.16l-28.25,0.7c0,0-24.58,1.98-32.39,7.1
			c-0.54,0.36-3.65,44.61-1.22,75.97c1.66,21.38,4.08,38.64,3.93,52.77C1885.61,1247.93,1880.06,1260.23,1880.06,1260.23z"/>
		<path class="st13" d="M1874.5,1153.08c0.55,16.72,22.13,32.82,52.78,32.82s55.51-13.56,55.51-30.3s-20.36-40.27-51.02-40.27
			C1901.11,1115.33,1873.79,1131.87,1874.5,1153.08z"/>
		<path class="st11" d="M1937.18,1049.3c0,0,0.59,4.24,1.51,10.1c1.67,10.71,2.53,28.29,4.68,33.63
			c1.89,4.7-14.52,49.17-19.92,36.78c-9.47-21.73-9.2-28.26-9.68-34.04c-0.48-5.73-2.03-25.34-3.05-38.41
			c-0.55-7.07-0.96-12.23-0.96-12.23L1937.18,1049.3z"/>
		<path class="st11" d="M1910.65,1057.12c-0.52-6.92-0.91-11.99-0.91-11.99l27.43,4.17c0,0,0.69,3.99,1.46,9.64
			C1927.51,1065.39,1917.51,1063.36,1910.65,1057.12z"/>
		<path class="st11" d="M1928.57,987.22c0,0,10.81,2.44,17.49,12.62c6.67,10.19,11.26,40.18-10.73,54.18
			c-21.99,14-39.09-5.8-39.37-25.12C1895.68,1009.59,1899.82,983.82,1928.57,987.22z"/>
		<path class="st11" d="M1890.93,1022.86c1.88,4.66,5.6,7.55,8.31,6.46c2.71-1.09,3.4-5.76,1.52-10.42
			c-1.88-4.66-5.6-7.55-8.31-6.46C1889.73,1013.54,1889.05,1018.2,1890.93,1022.86z"/>
		<path class="st14" d="M1925.33,986.59c0,0,13.78,30.92,25.89,33.68c12.11,2.76,11.93,18.32,11.93,18.32s-0.27-35.92-11.62-44.17
			C1940.19,986.18,1925.33,986.59,1925.33,986.59z"/>
		<path class="st11" d="M1946.41,1026.69c-1.59,5.02-0.13,9.96,3.26,11.04c3.39,1.08,7.44-2.12,9.03-7.14
			c1.59-5.02,0.14-9.96-3.26-11.04C1952.05,1018.48,1948.01,1021.67,1946.41,1026.69z"/>
		<g>
			
				<rect x="1705.18" y="1095.01" transform="matrix(-0.4868 0.8735 -0.8735 -0.4868 3521.8567 124.0255)" class="st15" width="38.63" height="3.04"/>
			
				<rect x="1705.74" y="1095.96" transform="matrix(-0.4868 0.8735 -0.8735 -0.4868 3522.958 124.0005)" class="st16" width="38.63" height="1.76"/>
			
				<rect x="1718.52" y="1101.72" transform="matrix(-0.4869 0.8735 -0.8735 -0.4869 3546.9375 122.752)" class="st15" width="37.78" height="3.04"/>
			
				<rect x="1718.87" y="1102.3" transform="matrix(-0.4869 0.8735 -0.8735 -0.4869 3547.6138 122.7361)" class="st16" width="37.78" height="2.26"/>
			
				<rect x="1731.81" y="1109.12" transform="matrix(-0.4869 0.8735 -0.8735 -0.4869 3573.1599 122.1562)" class="st15" width="37.78" height="3.04"/>
			
				<rect x="1732.33" y="1110.01" transform="matrix(-0.4869 0.8735 -0.8735 -0.4869 3574.1855 122.1333)" class="st16" width="37.78" height="1.85"/>
			<path class="st1" d="M1971.9,1326.77c-12.01-10.89-19.51-33.55-23.99-42.69c0,0-5.86-11.94-23.47-12.22
				c-17.61-0.28-37.21-10.76-46.16-30.93s12.82-50.52,12.82-50.52l0.95-1.7c0,0,14.37-34.48,36.23-37.47s41.08,8.16,50.58,22.99
				c9.5,14.83,22.74,13.54,22.74,13.54c10.13-0.99,33.34-6.53,48.92-2.04c14.57,4.2,26.13,14.93,33.19,28.49
				c7.66,14.71,8.95,34.85-2.08,60.14c-0.59,1.36-6.41,13.25-8.36,16.48c-1.72,3.35-8.78,14.56-9.62,15.77
				c-15.71,22.68-33.51,32.18-50.06,33.41C1998.34,1341.14,1983.13,1336.95,1971.9,1326.77z"/>
			<path class="st2" d="M1932.23,1249.91c14.34,7.99,32.92,1.99,41.5-13.41c8.58-15.4,3.92-34.36-10.42-42.35
				c-14.34-7.99-32.92-1.99-41.5,13.41C1913.22,1222.95,1917.89,1241.92,1932.23,1249.91z"/>
			<path class="st3" d="M1937.67,1240.14c9.31,5.19,21.39,1.29,26.96-8.71c5.58-10,2.54-22.32-6.77-27.51
				c-9.32-5.19-21.39-1.29-26.96,8.71C1925.32,1222.63,1928.36,1234.95,1937.67,1240.14z"/>
			<path class="st17" d="M1712.98,1068.97c-11.52,6.02-18.41,18.27-17.58,31.24l0.02,0.27l54.18,26.95
				c2.31-0.75,10.14,1.1,10.14,1.1l10.92-19.6c0,0-5.69-5.69-6.27-8.05L1712.98,1068.97L1712.98,1068.97z M1752.68,1109.84
				l-29.98-18.42c-2.38-1.46-3.05-4.73-1.49-7.29l0,0c1.56-2.56,4.75-3.46,7.13-2l29.98,18.42c2.38,1.46,3.05,4.73,1.49,7.29l0,0
				C1758.26,1110.41,1755.06,1111.3,1752.68,1109.84z M1712.84,1099.14L1712.84,1099.14c1.36-2.67,4.49-3.82,6.99-2.57l31.43,15.81
				c2.5,1.25,3.42,4.44,2.05,7.11l0,0c-1.36,2.67-4.49,3.82-6.99,2.57l-31.43-15.81C1712.4,1105,1711.48,1101.81,1712.84,1099.14z"
				/>
			<path class="st8" d="M1930.9,1212.63c-2.89,5.19-3.47,11-2.05,16.12l-169.11-100.22l10.92-19.6l175.27,92.94
				C1939.91,1202.83,1934.24,1206.63,1930.9,1212.63z"/>
			
				<rect x="1976.05" y="1255.31" transform="matrix(-0.4869 0.8735 -0.8735 -0.4869 4102.5688 113.0105)" class="st2" width="84.08" height="12.52"/>
			<path class="st8" d="M1764.8,1096.34l0.06-0.11c0.45-0.81,0.16-1.83-0.65-2.28l-6.31-3.52c-0.81-0.45-1.83-0.16-2.29,0.65
				l-0.06,0.11c-0.45,0.81-0.16,1.83,0.65,2.28l6.31,3.52C1763.33,1097.44,1764.35,1097.15,1764.8,1096.34z"/>
			<path class="st8" d="M1751.46,1088.9l0.06-0.11c0.45-0.81,0.16-1.83-0.65-2.28l-6.31-3.52c-0.81-0.45-1.83-0.16-2.28,0.65
				l-0.06,0.11c-0.45,0.81-0.16,1.83,0.65,2.28l6.31,3.52C1749.98,1090,1751.01,1089.71,1751.46,1088.9z"/>
			<path class="st8" d="M1739.06,1081.26l0.06-0.11c0.45-0.81,0.16-1.83-0.65-2.28l-6.31-3.52c-0.81-0.45-1.83-0.16-2.28,0.65
				l-0.06,0.11c-0.45,0.81-0.16,1.83,0.65,2.28l6.31,3.52C1737.59,1082.36,1738.61,1082.07,1739.06,1081.26z"/>
			<path class="st8" d="M1719.68,1116.03l0.06-0.11c0.45-0.81,0.16-1.83-0.65-2.28l-6.31-3.52c-0.81-0.45-1.83-0.16-2.28,0.65
				l-0.06,0.11c-0.45,0.81-0.16,1.83,0.65,2.28l6.31,3.52C1718.21,1117.13,1719.23,1116.84,1719.68,1116.03z"/>
			<path class="st8" d="M1732.6,1122.74l0.06-0.11c0.45-0.81,0.16-1.83-0.65-2.28l-6.31-3.52c-0.81-0.45-1.83-0.16-2.28,0.65
				l-0.06,0.11c-0.45,0.81-0.16,1.83,0.65,2.28l6.31,3.52C1731.13,1123.84,1732.15,1123.55,1732.6,1122.74z"/>
			<path class="st8" d="M1745.6,1129.98l0.06-0.11c0.45-0.81,0.16-1.83-0.65-2.28l-6.31-3.52c-0.81-0.45-1.83-0.16-2.28,0.65
				l-0.06,0.11c-0.45,0.81-0.16,1.83,0.65,2.28l6.31,3.52C1744.12,1131.08,1745.15,1130.79,1745.6,1129.98z"/>
			<polygon class="st10" points="1759.73,1128.53 1770.66,1108.92 1772.88,1110.1 1761.9,1129.81 			"/>
			<polygon class="st10" points="1774.76,1137.43 1786.09,1117.11 1787.02,1117.6 1775.67,1137.97 			"/>
			<polygon class="st10" points="1788.53,1145.59 1800.23,1124.6 1801.16,1125.1 1789.44,1146.13 			"/>
			<polygon class="st10" points="1800.25,1152.54 1812.27,1130.99 1813.2,1131.48 1801.17,1153.08 			"/>
			<polygon class="st10" points="1811.98,1159.49 1824.3,1137.37 1825.24,1137.87 1812.89,1160.03 			"/>
			<polygon class="st10" points="1822.79,1165.89 1835.41,1143.26 1836.34,1143.75 1823.7,1166.43 			"/>
			<polygon class="st10" points="1833.6,1172.3 1846.51,1149.15 1847.45,1149.64 1834.52,1172.84 			"/>
			<polygon class="st10" points="1842.75,1177.72 1855.9,1154.12 1856.83,1154.62 1843.66,1178.26 			"/>
			<polygon class="st10" points="1851.89,1183.14 1865.29,1159.1 1866.22,1159.6 1852.8,1183.68 			"/>
			<polygon class="st10" points="1860.73,1188.38 1874.37,1163.92 1875.3,1164.41 1861.64,1188.92 			"/>
			<polygon class="st10" points="1869,1193.28 1882.86,1168.42 1883.79,1168.92 1869.91,1193.82 			"/>
			<polygon class="st10" points="1876.82,1197.91 1890.88,1172.68 1891.82,1173.17 1877.73,1198.45 			"/>
			<polygon class="st10" points="1890.93,1206.27 1905.37,1180.36 1906.31,1180.85 1891.84,1206.81 			"/>
			<polygon class="st10" points="1897.83,1210.36 1912.46,1184.12 1913.4,1184.61 1898.74,1210.9 			"/>
			<polygon class="st10" points="1903.45,1213.69 1918.23,1187.17 1919.16,1187.67 1904.36,1214.23 			"/>
			<polygon class="st10" points="1909.37,1217.2 1924.31,1190.4 1925.25,1190.9 1910.28,1217.74 			"/>
			
				<rect x="1727.94" y="1085.95" transform="matrix(-0.4869 0.8734 -0.8734 -0.4869 3521.1921 108.3739)" class="st18" width="1.66" height="4.85"/>
			
				<rect x="1720.54" y="1100.5" transform="matrix(-0.4873 0.8732 -0.8732 -0.4873 3522.6885 137.074)" class="st18" width="1.14" height="4.32"/>
			
				<rect x="1740.85" y="1093.01" transform="matrix(-0.4873 0.8732 -0.8732 -0.4873 3546.8848 108.8635)" class="st18" width="1.27" height="5.2"/>
			
				<rect x="1733.17" y="1107.18" transform="matrix(-0.4869 0.8734 -0.8734 -0.4869 3547.5146 135.2414)" class="st18" width="1.74" height="4.67"/>
			
				<rect x="1754.15" y="1100.17" transform="matrix(-0.487 0.8734 -0.8734 -0.487 3572.364 106.6248)" class="st18" width="1.44" height="4.49"/>
			
				<rect x="1745.87" y="1116.42" transform="matrix(-0.4862 0.8739 -0.8739 -0.4862 3572.7307 136.2823)" class="st18" width="0.85" height="4.14"/>
			<g>
				<polygon class="st10" points="1883.57,1201.91 1897.81,1176.35 1898.75,1176.85 1884.48,1202.45 				"/>
			</g>
		</g>
		<path class="st11" d="M1956.82,1255.44c0.18,0.42-5.93,1.74-11.47,3.33c-5.54,1.59-14.64,1.61-14.21,2.94
			c0.33,1.03,5.94,1.65,11.08,1.25c-1.29,0.55-1.88,1.08-1.2,1.52c2.81,1.8,18.93,0.79,33.72-5.5c14.79-6.3,100.95-53.59,92.22-66.9
			c-3.21-4.9-17.01-19.02-24.9-28.73l-22.56,17.56l11.62,12.69c-17.8,19.05-45.04,39.73-46.44,40.73
			c-3.77,2.7-11.04,0.37-12.67,0.32c-8.98-0.23-20.52-0.34-22.45,2.66c-1.92,3,6.42,1.99,11.38,3.52
			c4.97,1.53-11.54,14.59-28.69,13.5c-17.15-1.09,2.24,6.57,7.9,5.05C1945.82,1257.86,1956.53,1254.77,1956.82,1255.44z"/>
		<path class="st11" d="M1840.53,1179.4l-43.61-15.86c-1.73-0.63-2.88-2.28-2.87-4.12c0.02-3.54-0.02-6.55-0.36-7.53
			c-3-8.53-4-20.3-7.42-21.46c-3.42-1.17-0.63,6.8-1.12,12.06c-0.48,5.26-17.07-7.85-19.61-25.01c-2.54-17.16-4.62,6.78-1.89,11.98
			c2.72,5.21,6.59,12.03,5.97,12.47c-0.38,0.28-2.9-5.98-5.66-11.05c-2.76-5.07-3.48-14.44-4.72-13.7
			c-1.01,0.6-1.18,7.32,0.09,12.67c-0.99-1.48-1.79-2.18-2.12-1.31c-1.42,3.76,2.06,26.26,20.38,41.71
			c18.51,15.61,65.56,48.61,75.63,43.97L1840.53,1179.4z"/>
	</g>
	<g>
		<path class="st19" d="M1252.76,747.77c0,0,0.92-2.59,0.18-8.24c-0.92-6.98-3.57-17.37-3.96-18.27
			c-0.71-1.63,21.07-11.4,21.07-11.4s36.06-6.16,40.98-10.85c4.92-4.69,9.27-6.9,7.25-2.4c-3.66,8.14-12.97,20.54-15.15,22.33
			c-2.18,1.8-29.53,12.23-30.03,12.29c-0.51,0.06,1.77,17.76,1.77,17.76L1252.76,747.77z"/>
		<g>
			<path class="st5" d="M1275.41,737.42c0,0-23.97-1.21-24.12,1.19c-3.32,53.11-2.9,70.48-3.88,71.14
				c-3.36,2.26-59.82-36.55-68.62-38.48c-4.21-0.93-8.58-0.17-12.78,0.46c-10.02,1.49-6.66,0.85-11.92,1.74l0.01,0.01
				c-0.29,0.05-0.45,0.08-0.45,0.08l1.18,9.45c12.54,8.85,56.78,160.11,58.95,159.75c2.43-0.4,55.2,6.41,53.79,2.2
				c-0.23-0.68-38.19-24.89-52.85-64.58c-4.92-13.33-8.3-27.9-11.62-40.61c12.06,4.36,59.13,20.97,65.84,17.24
				C1289.79,845.41,1275.41,737.42,1275.41,737.42z"/>
			<path class="st19" d="M1396.18,1000.99c0,0,52.11,31.69,54.49,38.12c3.42,9.27,45.59-8.45,34.83-9.14
				c-2.47-0.16-10.46-1.21-11.14-1.47c-3.63-1.42-52.12-47.51-52.12-47.51L1396.18,1000.99z"/>
			<path class="st0" d="M1505.98,1027.54l-30.73,1.13c0,0-7.85,8.24-24.53,10.56c0,0-1.77,7.96,0.56,16.73
				c0.4,1.52,1.21,6.14,2.75,5.85c5.58-1.05,20.12-6.56,36.79-12c0,0,22.37-7.58,34.68-17.08
				C1537.81,1023.23,1505.98,1027.54,1505.98,1027.54z"/>
			<path class="st2" d="M1171.43,932.66c0,0,35.61,1.72,73.15-11.89c43.44-15.75,91.7-31.28,107.18-24.58
				c12.46,5.39,98.27,106.71,98.27,106.71l-25.67,23.84l-90.77-80.21c0,0-97.74,49.84-121.2,48.39
				C1158.99,991.6,1153.29,949.93,1171.43,932.66z"/>
			<polygon class="st2" points="1206.97,905.94 1246.83,943.31 1184.37,970.75 1171.43,932.66 			"/>
			<path class="st19" d="M1300.47,1087.15c0,0,4.72,57.92,4.56,67.84c-0.16,9.88,29.1,36.1,24.6,26.31c-1.04-2.25-3.91-9.78-4-10.5
				c-0.48-3.86,1.3-70.78,1.3-70.78L1300.47,1087.15z"/>
			<path class="st0" d="M1341.5,1198.16l-15.6-26.51c0,0-10.97-2.99-20.94-16.57c0,0-7.84,2.22-14.46,8.45
				c-1.14,1.07-8.93,8.32-8.16,9.69c2.82,5.04,15.77,15,29.94,25.88c0,0,19.72,12.38,33.93,18.7
				C1360.41,1224.13,1341.5,1198.16,1341.5,1198.16z"/>
			<path class="st1" d="M1343.57,966.75c-14.14-14.83-114.51-18.6-114.51-18.6l-33.74-49.55l-56.31,44.68c0,0,11.81,47.62,17.9,60
				c8.12,16.49,49.05,12.52,73.96,9.31c22.92-2.96,65.38-3.25,65.38-3.25l0.66,126.74c0,0,28.62,3.04,36.32,1.08
				C1334.11,1136.93,1361.16,985.2,1343.57,966.75z"/>
			<path class="st10" d="M1154,773.61l-34.06,5.95c0,0-0.75,0.37-0.98,0.44c-2.73,0.85,11.66,100.44,18.58,137.45
				c6.92,37.01,13.83,52.09,13.83,52.09s45.51-13.77,59.12-21c5.65-3,17.85-22.62,17.85-22.62s-16.98-17.95-28.14-49.04
				c-8.61-23.98-20.82-66.86-25.91-75.51C1162.58,781.5,1154,773.61,1154,773.61z"/>
		</g>
		<path class="st19" d="M1117.34,749.21l2.62,30.38c0,0,26.73,35.6,37.49,28.92c9.03-5.61-2.91-33.68-2.91-33.68
			s-2.45-6.47-5.65-13.86c-2.24-5.16-4.26-10.8-4.67-15.07C1143.22,735.52,1117.34,749.21,1117.34,749.21z"/>
		<g>
			<path class="st8" d="M1135.65,677.03c0,0,13.33,15.7,15.88,29.95c2.55,14.25,0.67,24.39,0.67,24.39l-41.43-39.07L1135.65,677.03z
				"/>
			<path class="st19" d="M1154.94,703.6c1.11,4.96-0.33,9.51-3.22,10.15c-2.88,0.64-6.12-2.86-7.23-7.82
				c-1.11-4.96,0.33-9.51,3.22-10.15C1150.59,695.14,1153.83,698.64,1154.94,703.6z"/>
			<path class="st19" d="M1099.85,700.65c-0.85-0.08,4.18,41.67,17.45,50.06s34.44,6.75,39.41-3.87
				c5.51-11.75-6.19-54.99-25.3-62.19C1112.31,677.43,1099.85,700.65,1099.85,700.65z"/>
			<path class="st8" d="M1093.71,675.12c-8.28,9.2-12.05,15.65-16.59,30.79c-5.59,18.62,11.84,35.16,25.5,40.93
				c13.65,5.77,15.8,14.6,15.8,14.6l-0.15-5.63c0.04-4.39-1.57-6.7-3.1-9.17c-1.36-2.2-5.81-9.76-7.42-11.7
				c-4.26-5.12-5.11-6.24-3.96-11.72c0.89-4.22-1.76-12.99-0.44-19.93l16.77-5.76c0,0,10.46-3.87,15.16-10.79
				C1148.76,666.87,1115.49,650.44,1093.71,675.12z"/>
			<path class="st19" d="M1108.42,727.3c2.66,4.33,2.78,9.1,0.27,10.65c-2.52,1.55-6.72-0.71-9.38-5.04
				c-2.66-4.33-2.78-9.1-0.27-10.65C1101.55,720.71,1105.75,722.97,1108.42,727.3z"/>
		</g>
		<path class="st19" d="M977.45,626.03c2.91,7.81,7.95,20.09,7.95,20.09c0.13,3.52,0.83,18.18,1.71,36.14l24.94-13.59
			c0,0-3.76-28.99-2.8-30.9c0.81-1.62,2.69,0.06,9.35-12.38c1.92-3.59,1.65-9.56,1.65-9.56s-0.39-7.35-2.11-7.83
			c-1.72-0.49-3.47,0.83-3.91,2.16c-0.44,1.33,0.06,4.25-0.39,5.58c-0.44,1.33-4.05,3.3-5.65,3.41c-1.6,0.11-2.36-21.59-2.36-21.59
			s0.17-6.2,0.38-8.25c0.18-1.75,1.14-6.91,1.14-6.91s0.96-7.45-1.35-7.73c-1.36-0.17-4.04,6.11-5.61,12.62
			c-1.69,7.01-2.26,14.3-2.98,14.29c-1.7-0.03-2.21-11.91-2.21-11.91s1.03-5.59,0.68-8.13c1.2-3.31,1.56-9.22-1.27-9.37
			c-0.52-0.03-3.3,7.76-3.3,7.76s-0.82,5.35-1.37,7.87c-0.97,4.44-0.39,11.21-0.81,14.27c-0.35,2.55-1.05,1.6-1.3,1.74
			c-0.19,0.1-0.24-3.35-0.39-8.08c-0.07-2.39-0.67-5.08-0.33-7.84c0.32-2.56,0.24-6.17,0.15-8.34c-0.27-6.15-4.04-5.07-4.7,0.66
			c-0.25,2.18-0.51,4.56-0.76,6.97c-0.98,9.38,0.13,18.17-0.85,18.36c-1.27,0.25-2.33-15.87-2.33-15.87s-3.01-8.64-3.99-0.17
			c-1.13,9.82,0.03,17.58,0.1,17.92C975.24,609.69,974.54,618.23,977.45,626.03z"/>
		<path class="st5" d="M1119.91,779.61c0,0-34.13,2.43-43.37-0.5c-5.6-1.77-53.44-31.78-53.44-31.78l-10.69-94.27l-30.99,1.31
			c0,0-3.57,106.02,3.3,116.76c7.09,11.09,76.76,51.97,92.04,71.48c8.8,11.24,35.37,163.39,37.87,164.6
			c17.56,6.65,77.99,19.96,76.17,14.88C1140.44,881.75,1119.91,779.61,1119.91,779.61z"/>
		<path class="st19" d="M1264.24,721.5c0,0,8.97-5.17,11.4-6.32c2.43-1.14,10.35-3.62,10.35-3.62s11.04-14.4,14.21-15.12
			c3.17-0.72-5.67,14.96-5.67,14.96l-3.89,4.74c0,0,6.37-6.92,7.62-7.92c1.25-1,10.06-17.62,12.88-16.93
			c2.82,0.69-3.15,12.35-6.02,18.51c-2.86,6.16-18.64,11.63-18.64,11.63L1264.24,721.5z"/>
	</g>
	<g>
		<g>
			<g>
				<g>
					<path class="st20" d="M1294.38,692.14c-0.23-0.26-23.58-25.78-68.21-41.49c-63.71-22.43-172.93,2.15-205.35-68.16
						c-5.79-12.55-6.05-22.36-6.06-22.78c-0.03-1.5,2.24-1.55,2.27-0.05l0,0c0,0.1,0.28,9.84,5.9,21.97
						c31.83,68.76,139.93,44.32,204,66.87c32.05,11.28,58.4,30.17,69.15,42.11C1297.07,691.74,1295.38,693.25,1294.38,692.14z"/>
				</g>
				<g>
					<path class="st20" d="M1293.49,680.09c-0.88-0.96-22.09-23.75-61.88-37.82c-43.34-15.39-110-11.63-150.05-29.56
						c-24.34-10.89-36.23-26.48-41.93-37.65c-6.19-12.14-6.6-21.59-6.61-21.98c-0.05-1.5,2.21-1.58,2.27-0.08
						c0.01,0.14,0.43,9.46,6.42,21.14c5.54,10.8,17.1,25.9,40.78,36.5c39.65,17.75,106.18,13.96,149.89,29.49
						c40.31,14.26,61.89,37.45,62.79,38.43c0.42,0.46,0.39,1.18-0.07,1.6C1294.64,680.58,1293.92,680.55,1293.49,680.09z"/>
				</g>
				<g>
					<path class="st20" d="M1292.6,668.03c-9.45-10.3-29-24.68-55.53-34.15c-41.87-15.02-98.78-14.61-134.55-29.62
						c-25.47-10.69-38.04-25.79-44.09-36.57c-6.6-11.75-7.11-20.86-7.13-21.24c-0.07-1.5,2.19-1.62,2.27-0.11l0,0
						c0,0.09,0.53,9.06,6.91,20.36c5.89,10.44,18.11,25.06,42.92,35.47c18.06,7.58,41.46,11.15,66.24,14.92
						c23.4,3.57,47.59,7.26,68.2,14.65c26.92,9.6,46.81,24.25,56.44,34.75C1295.29,667.61,1293.62,669.14,1292.6,668.03z"/>
				</g>
				<g>
					<path class="st20" d="M1291.71,655.98c-40.48-44.13-122.47-42.37-168.23-60.15c-26.66-10.36-39.89-24.98-46.29-35.41
						c-6.98-11.38-7.6-20.22-7.62-20.59c-0.09-1.5,2.17-1.63,2.26-0.14c0.01,0.16,0.66,8.79,7.37,19.67
						c6.23,10.1,19.11,24.25,45.1,34.35c45.61,17.73,127.96,15.9,169.08,60.73c0.42,0.46,0.39,1.18-0.07,1.6
						C1292.85,656.47,1292.13,656.44,1291.71,655.98z"/>
				</g>
			</g>
		</g>
		<g>
			<path class="st4" d="M1115.71,566.47L1115.71,566.47c-3.75-3.92-8.51-15.32-11.35-22.14c-3.82-9.16-3.35-7.28-4.81-8.02
				c-3.05-0.61-0.48,1.59-24.79,51.3c-10.07-13.17-38.94-9.94-38.85,5.37c0.04,7.91,8.4,14.98,19.65,14.92
				c7.82-0.04,14.85-3.63,17.91-9.13l-0.01-0.01c0.8-1.46,11.37-23.05,20.07-40.53c3.04,11.56,16.64,19.99,25.13,14.39l2.57-1.69
				l-2.6-1.64C1117.72,568.72,1115.85,566.62,1115.71,566.47z"/>
			<path class="st4" d="M1272.71,613.99L1272.71,613.99c-4.61-1.32-13.38-7.96-18.62-11.93c-5.54-4.19-6.12-4.63-7.48-4.06
				c-2.89,0.97,0.11,2.31,3.67,51.06c-13.84-5.27-34.39,9.66-27.39,21.51c7.4,12.54,32.26,3.02,31.94-12.52h-0.02
				c-0.04-1.47-1.57-26.22-2.7-43.25c7.68,7.23,21.73,11.06,25.77,2.9l1.36-2.76C1275.69,614.69,1277.21,615.3,1272.71,613.99z"/>
			<path class="st4" d="M1197.33,614.33c-0.06-2.06-1.56-24.52-3.38-52.11c-29,3.07-28,3.36-54.7-0.89
				c0.89,14.17,1.86,28.41,2.68,39.87c-14.04-5.36-31.47,11.09-24.57,22.79c7.46,12.63,30.87-0.62,30.56-16.08
				c0,0-1.57-12.33-2.9-32l45.14,0.41c0.42,6.08,0.92,18.03,1.77,29.71c-13.97-5.32-33.46,9.08-26.53,20.83
				c3.82,6.47,13.75,7.7,22.14,2.75c6.07-3.58,9.92-9.58,9.8-15.27L1197.33,614.33z"/>
		</g>
	</g>
	<path class="st21" d="M1782.17,483.47L1782.17,483.47c-4.58,1.45-15.55,0.75-22.11,0.34c-6.93-0.44-7.66-0.48-8.48,0.75
		c-1.87,2.41-1.7,2.36,28.2,41.03c-14.45,3.25-20.27,26.55-7.89,32.57c13.1,6.36,28.56-15.3,19.71-28.08l-0.01,0.01
		c-0.85-1.21-13.84-18.03-24.18-31.6c10.4,1.79,22.26-5.74,21.12-14.77l-0.38-3.05C1785.05,482.4,1786.65,482.08,1782.17,483.47z"/>
	<path class="st10" d="M1195.44,394.85c0.22-2.05,1.77-24.51,3.69-52.09c-29.15-0.87-28.19-0.45-54.08-8.27
		c-1.03,14.16-2,28.4-2.73,39.86c-13.19-7.2-32.68,6.74-27.42,19.26c5.68,13.52,31.57,7.27,33.34-8.09l-0.02,0
		c0.15-1.41,0.93-13.91,2.27-33.58l40.69,6.01c-0.41,6.08-0.92,14.05-1.66,25.73c-13.12-7.16-32.7,6.69-27.42,19.26
		c2.91,6.92,12.58,9.49,21.57,5.71c6.5-2.73,11.12-8.15,11.78-13.8L1195.44,394.85z"/>
	<polygon class="st22" points="671.93,556.58 686.95,568.76 704.69,560.12 720.56,574.98 736.62,559.94 755.31,575.95 771.8,563.93 
		792.3,576.39 787.59,584.15 772.26,574.84 754.86,587.52 736.89,572.13 720.57,587.42 703.05,571.02 685.73,579.46 671.8,568.17 
		661.58,576.09 656.02,568.91 	"/>
	<g>
		<path class="st5" d="M1829.73,877.61c0.28,1.46,0.81,2.84,1.47,4.17c2.41-2.26,5.99-4.07,11.25-3.97
			c0.61-1.92,1.23-3.85,1.85-5.77C1840.02,871.84,1833.64,872.55,1829.73,877.61z"/>
		<path class="st5" d="M1841.27,903.81c2.67-7.75,5.39-15.98,8.1-24.14c-0.35-0.21-0.58-0.33-0.53-0.31
			c-2.12-0.96-2.43-0.99-2.42-0.98c-1.57-0.47-2.86-0.53-2.84-0.53c-0.38-0.03-0.75-0.03-1.12-0.04c-2.84,8.91-5.6,17.74-8.16,25.8
			C1836.6,904.07,1838.98,904.12,1841.27,903.81z"/>
		<path class="st5" d="M1821.76,937.63c0.04-0.06-3.88,6.65-9.24,6c0,0-6.15-0.57-2.8-6.75c0,0.01,0.17-0.5,0.18-0.51
			c0.38-1.1-0.18-2.32-1.3-2.78c-1.18-0.48-2.33,0.15-3.04,1.2c-0.39,0.57-0.91,1.56-1.06,3.28c-0.84,10.05,11.23,13.26,18.26,7.08
			c4.38-3.81,9.87-16.96,15.75-33.43c-2.18-0.13-4.37-0.41-6.52-0.89C1827.67,924.15,1824.06,934.38,1821.76,937.63z"/>
		<path class="st5" d="M1834.29,903.62c-0.79,2.49-1.56,4.9-2.31,7.21c2.15,0.47,4.34,0.76,6.52,0.89c0.91-2.56,1.84-5.21,2.77-7.91
			C1838.98,904.12,1836.6,904.07,1834.29,903.62z"/>
		<path class="st5" d="M1844.3,872.04c2.64,0.12,4.48,0.58,4.48,0.58c0.93,0.25,1.8,0.54,2.64,0.88c2.35-7.04,4.68-13.92,6.94-20.3
			c-3.2,0.98-6.14,1.99-8.84,3.04C1847.77,861.38,1846.03,866.7,1844.3,872.04z"/>
		<path class="st5" d="M1853.22,845.64c-1.23,3.41-2.46,6.96-3.7,10.6c2.7-1.04,5.64-2.06,8.84-3.04c1.29-3.64,2.57-7.13,3.81-10.38
			C1859.22,843.85,1856.23,844.76,1853.22,845.64z"/>
		<path class="st5" d="M1819.3,886.61c-0.43-3.38-0.3-18.6,30.22-30.37c1.24-3.64,2.47-7.19,3.7-10.6c-3.55,1.04-7.11,2.05-10.6,3.2
			c-8.45,2.77-17.16,6.17-23.68,12.15c-8.48,7.79-10.64,19.32-8.11,30.02c1.32,5.57,4.28,10.89,9.06,14.49
			c3.52,2.64,7.71,4.37,12.09,5.33c0.75-2.32,1.52-4.73,2.31-7.21C1827.14,902.21,1820.62,896.93,1819.3,886.61z"/>
		<path class="st5" d="M1888.65,824.46c-0.95-7.96-9.17-20.53-19.29-12.06c-4.57,3.83-10.26,16.89-16.15,33.24
			c3.01-0.88,6.01-1.79,8.96-2.81c6.38-16.64,12-27.23,15.82-22.91c2.26,2.57,3.26,7.04,1.39,11.48c-1.99,4.73-7.18,7.46-11.85,9.41
			c-1.76,0.74-3.55,1.4-5.36,2.02c-1.24,3.25-2.52,6.73-3.81,10.38c1.38-0.42,2.8-0.84,4.28-1.24c9.28-2.55,18.7-8.43,22.36-13.73
			C1885,838.25,1889.57,832.22,1888.65,824.46z"/>
		<path class="st5" d="M1851.24,880.98c-0.31-0.26,2.29,1.75,3.52,4.38c-0.54-1.06,3.61,4.86-1.56,11.91
			c-2.62,3.57-7.08,5.87-11.94,6.53c-0.93,2.7-1.85,5.34-2.77,7.91c0.35,0.02,0.7,0.04,1.05,0.05
			c25.69,0.85,31.22-30.42,11.87-38.26c-0.68,2.05-1.37,4.1-2.05,6.17C1849.93,880,1850.78,880.54,1851.24,880.98z"/>
		<path class="st5" d="M1844.3,872.04c-0.62,1.92-1.24,3.85-1.85,5.77c0.37,0.01,0.74,0.02,1.12,0.04c-0.01,0,1.27,0.06,2.84,0.53
			c-0.01,0,0.3,0.02,2.42,0.98c-0.05-0.03,0.18,0.1,0.53,0.31c0.68-2.06,1.37-4.12,2.05-6.17c-0.83-0.34-1.71-0.64-2.64-0.88
			C1848.79,872.63,1846.94,872.16,1844.3,872.04z"/>
		<path class="st5" d="M1839.31,884.34c-0.98,4.45-4.35,7.49-7.52,6.79c-3.17-0.7-4.95-4.87-3.96-9.33
			c0.98-4.45,4.35-7.49,7.52-6.79C1838.51,875.71,1840.29,879.89,1839.31,884.34z"/>
		<path class="st5" d="M1816.21,938.99c-0.98,4.45-4.35,7.49-7.52,6.79c-3.17-0.7-4.95-4.87-3.96-9.33c0.98-4.45,4.35-7.49,7.52-6.8
			C1815.41,930.36,1817.19,934.54,1816.21,938.99z"/>
	</g>
	<g>
		<path class="st2" d="M586.63,1503.11v-114.36c0-115.52,93.65-209.17,209.17-209.17h114.36c115.52,0,209.17,93.65,209.17,209.17
			v114.36c0,115.52-93.65,209.17-209.17,209.17H795.8C680.28,1712.28,586.63,1618.63,586.63,1503.11z"/>
		<path class="st1" d="M715.07,1089.68c0.63-20.7-6.97-224.06,44.43-384.87c35.04-109.83,74.04-157.29,120.76-195.71
			c2.13-1.67,4.22-3.37,6.36-5c2.16-1.62,4.29-3.25,6.49-4.81c0.67-0.48-2.43,1.72,6.57-4.65
			c152.44-105.81,461.3-110.62,590.94,49.15c47.36,57.48,78.75,150.16,92.47,224.01c23.89,128.34,17.15,268.74,13.82,406.93h-62.49
			c-11.23-171.8,7.15-387.59-72.17-545.82l-2.98-5.81c-3.52-4.1-45.8-107.12-182.38-156.49
			c-172.25-58.21-349.27,26.25-408.58,182.76c-54.09,138.75-48.89,301.39-49.02,440.32H715.07z"/>
		<rect x="668.57" y="984.51" class="st1" width="190.1" height="274.15"/>
		<path class="st2" d="M858.68,1141.92c-13.69-2.7-27.84-4.12-42.31-4.12H718.1c-17.04,0-33.62,1.96-49.52,5.67v115.18h190.1
			V1141.92z"/>
		<path class="st21" d="M848.01,514.94c4.42,8.28,13.59,12.09,20.67,8.49c7.19-3.65,9.5-13.54,5.16-22.09
			c-4.34-8.55-13.69-12.52-20.88-8.87c-1.88,0.95-3.41,2.34-4.59,4l-11.42-24.55l41.9-7.34l19.53,41.99h0
			c0.02,0.05,0.04,0.1,0.07,0.15c4.34,8.55,13.69,12.52,20.88,8.87c7.19-3.65,9.5-13.54,5.16-22.09
			c-4.34-8.55-13.69-12.52-20.88-8.87c-1.87,0.95-3.4,2.33-4.58,3.99l-20.91-44.97c-0.68-1.45-2.13-2.31-3.47-2.04l-52.18,10.58
			c-1.74,0.35-2.54,2.44-1.66,4.33l27.18,58.45L848.01,514.94z"/>
		<path class="st1" d="M530.21,1511.57V1380.3c0-110.85,89.86-200.71,200.71-200.71h89.07c110.85,0,200.71,89.86,200.71,200.71
			v131.27c0,110.85-89.86,200.71-200.71,200.71h-89.07C620.07,1712.28,530.21,1622.42,530.21,1511.57z"/>
		<path class="st2" d="M606.88,1452.38v-58.1c0-58.69,47.58-106.27,106.27-106.27h58.1c58.69,0,106.27,47.58,106.27,106.27v58.1
			c0,58.69-47.58,106.27-106.27,106.27h-58.1C654.46,1558.64,606.88,1511.06,606.88,1452.38z"/>
		<path class="st1" d="M556.78,1452.38v-58.1c0-58.69,47.58-106.27,106.27-106.27h58.1c58.69,0,106.27,47.58,106.27,106.27v58.1
			c0,58.69-47.58,106.27-106.27,106.27h-58.1C604.35,1558.64,556.78,1511.06,556.78,1452.38z"/>
	</g>
	<g>
		<path class="st23" d="M2126.38,932.62c3.1,8.33,8.48,21.43,8.48,21.43c0.14,3.76,0.88,19.39,1.83,38.55l26.6-14.49
			c0,0-4.01-30.92-2.99-32.96c0.86-1.73,2.87,0.06,9.98-13.2c2.05-3.83,1.76-10.2,1.76-10.2s-0.41-7.84-2.25-8.35
			c-1.83-0.52-3.7,0.88-4.17,2.3c-0.47,1.42,0.06,4.53-0.41,5.95c-0.47,1.42-4.32,3.52-6.03,3.64c-1.71,0.12-2.52-23.03-2.52-23.03
			s0.18-6.61,0.41-8.79c0.2-1.86,1.21-7.37,1.21-7.37s1.02-7.94-1.44-8.25c-1.45-0.18-4.31,6.51-5.98,13.46
			c-1.81,7.48-2.41,15.25-3.18,15.24c-1.81-0.03-2.36-12.7-2.36-12.7s1.09-5.97,0.73-8.68c1.28-3.53,1.66-9.83-1.35-9.99
			c-0.56-0.03-3.52,8.28-3.52,8.28s-0.88,5.7-1.46,8.39c-1.03,4.74-0.42,11.95-0.86,15.22c-0.37,2.72-1.12,1.71-1.38,1.85
			c-0.21,0.11-0.26-3.57-0.42-8.62c-0.08-2.54-0.71-5.41-0.35-8.37c0.34-2.73,0.26-6.58,0.16-8.89c-0.29-6.56-4.31-5.4-5.01,0.71
			c-0.27,2.33-0.54,4.86-0.81,7.44c-1.04,10,0.13,19.38-0.91,19.59c-1.35,0.26-2.48-16.93-2.48-16.93s-3.21-9.21-4.25-0.19
			c-1.2,10.47,0.03,18.75,0.11,19.11C2124.02,915.18,2123.27,924.29,2126.38,932.62z"/>
		<path class="st24" d="M2295.34,1027.52c0,0-13.16-13.87-23.74,3c0,0-8.15-4.58-13.87,3.58c0,0-14.73-4.43-18.3,17.59
			c0,0-7.58-1.43-8.58,7.58c-1,9.01,3.58,15.01,3.58,15.01s-4.26,3.19-2.32,11.48c1.64,7.04,7.47,8.11,7.47,8.11
			s1.57,11.87,6.72,15.44c5.15,3.57,12.16,1.86,12.16,1.86s1.86,6.43,7.86,5.86c6.01-0.57,13.44-6.29,20.16-3.72
			c6.72,2.57,24.17-0.14,24.17-0.14s19.59-8.72,13.73-28.74c0,0,10.3-9.29,1.29-20.45c0,0,6.58-17.45-6.43-27.74
			S2295.34,1027.52,2295.34,1027.52z"/>
		<path class="st12" d="M2409.2,913.99l1.64,26.67l-5.92,45.41l-25.48,0.25c0,0,5.68-28.7,1.77-35.51
			c-3.07-5.36-6.86-13.66-7.15-16.66C2373.1,923.91,2409.2,913.99,2409.2,913.99z"/>
		<path class="st1" d="M2376.29,928.71l10.87,20.66c3.22,6.08,10.38,5.88,13.23-0.43l4.28-11.99
			C2404.66,936.96,2386.37,921.36,2376.29,928.71z"/>
		<path class="st0" d="M2298.39,889.19l54.42,5.55c2.77,0.28,5.23,1.89,6.56,4.29l26.2,47.22c3.36,6.06,12.33,5.7,15.17-0.61
			l22.19-49.17c1.13-2.5,3.44-4.3,6.18-4.81l53.78-9.9c6.9-1.27,9.32-9.77,4.1-14.38l-40.71-35.94c-2.07-1.83-3.1-4.55-2.74-7.26
			l7.04-53.34c0.9-6.84-6.57-11.73-12.64-8.28l-47.35,26.95c-2.41,1.37-5.36,1.49-7.87,0.32l-49.43-23.07
			c-6.34-2.96-13.38,2.51-11.91,9.26l11.44,52.6c0.58,2.68-0.21,5.47-2.13,7.46l-37.59,39.09
			C2288.29,880.21,2291.4,888.48,2298.39,889.19z"/>
		<path class="st12" d="M2204.75,1608.61c0,0-14.33,17.77-17.9,19.96s1.59,28,11.32,29.7c5.48,0.95,8.24-6.65,8.24-6.65l-1.29-5.86
			l20.48-21.1L2204.75,1608.61z"/>
		<path class="st12" d="M2278.58,1613c0,0-11.94,19.45-15.21,22.08c-3.26,2.63,5.16,27.57,15.02,28.01
			c5.56,0.25,7.33-7.65,7.33-7.65l-2.03-5.65l17.61-23.54L2278.58,1613z"/>
		<path class="st24" d="M2264.09,1634.31c0,0,6.86,8.75,10.61,12.23c4.83,4.5,11.02,8.89,11.02,8.89s7.01,12.72,8.93,17.16
			c4.26,9.88,9.06,20.9,8.37,26.43c-0.22,1.78-4.21,3.66-7.54,2.63c-13.84-4.26-49.24-36.64-53.71-45.33
			C2236.61,1646.3,2264.09,1634.31,2264.09,1634.31z"/>
		<path class="st9" d="M2365.13,1338c-1.29-3.6-2.52-6.93-3.71-10.06c-14.72,3.21-31.36,6.75-48.46,10.39l-2.08,62.71
			c0.01-4.84,12.86,100.02,12.86,100.02s-30.24,72.86-52.98,115.75c9.33,11.64,11.8,13.3,25.31,21.23
			c35.3-42.31,80.4-116.89,82.32-129.76C2379.49,1500.88,2380.48,1381.17,2365.13,1338z"/>
		<path class="st21" d="M2233.71,1356.13c4.5,48.86,14.5,142.28,13.66,149.79c-2.51,9.37-45.19,95.81-53.19,108.39
			c6.36,9.58,15.73,18.59,26.31,21.45c2.09,0.56,74.18-102.59,78.18-110.88c4.53-9.38,12.07-60.52,12.2-123.84l2.08-62.71
			C2284.45,1344.41,2258.24,1350.37,2233.71,1356.13z"/>
		<path class="st1" d="M2327.32,1133.4l-33.55,4.61c0,0-26.9,0.66-30.22,0.66c-3.33,0-24.4,122.4-30.5,168.46
			c-6.1,46.06-1.37,54.22-1.37,54.22s42.54,9.57,74.01,6.78c32.73-2.9,69.55-20.57,69.55-20.57s-26.36-86.49-31.91-114.13
			C2337.77,1205.78,2327.32,1133.4,2327.32,1133.4z"/>
		<path class="st4" d="M2408.68,985.13c0,0,2.15,91.26-1.29,98.24c-5.01,10.15-61.35,82.15-61.35,82.15s26.91,112.63,38.23,151.53
			c1.14,3.92,6.18,29.22,6.18,31.69c0,5.47-23.81,12.41-26.64,12c-2.53-0.37-23.3-107.51-36.57-159.93
			c-4.49-17.76-12.2-34.55-22.75-49.54l-9.22-13.1l70.78-70.95c0,0,8.72-78.97,8.72-85.51
			C2374.79,979.98,2405.24,978.69,2408.68,985.13z"/>
		<path class="st4" d="M2264.76,1138.5l-88.27-89.93c0,0-12.3-85.05-13.17-88.25c-0.86-3.15-22.78-4.85-31.61-5.71
			c-2.83-0.28,1.48,90.58,5.71,105.81c4.99,17.99,71.71,99.97,71.71,99.97s11.96,44.4,9.08,76.97
			c-4.79,54.09-17.68,128.5-15.37,130.84c14.34,9.03,69.4,10,72.88,4.39C2314.2,1310.61,2264.76,1138.5,2264.76,1138.5z"/>
		<path class="st12" d="M2293.12,1121.69l2.38,17.67c0,0,5.33,25.45-1.53,30.36s-29.19-31.09-29.19-31.09l2.36-44.77
			L2293.12,1121.69z"/>
		<path class="st1" d="M2266.38,1108.38c5.67,15.27,19.17,24.66,28.76,28.3l-2.02-14.98l-25.98-27.83L2266.38,1108.38z"/>
		<path class="st24" d="M2230.62,1063.44c0,6.82,3.88,12.35,8.66,12.35c4.78,0,8.66-5.53,8.66-12.35s-3.88-12.35-8.66-12.35
			C2234.5,1051.09,2230.62,1056.62,2230.62,1063.44z"/>
		<path class="st24" d="M2256.6,1036.9c0,3.92,4.72,7.09,10.54,7.09c5.82,0,10.54-3.18,10.54-7.09c0-3.92-4.72-7.1-10.54-7.1
			C2261.32,1029.81,2256.6,1032.99,2256.6,1036.9z"/>
		<path class="st12" d="M2283,1046.83c13.93-4.79,28.77,4.46,30.9,18.81c0.92,6.24,1.76,14.09,1.92,22.67
			c0.38,20.63-10.31,40.72-19.68,40.72c-9.37,0-35.27-13.36-36.21-42.65C2259.36,1068.29,2268.39,1051.86,2283,1046.83z"/>
		<path class="st12" d="M2266.84,1088.7c0,4.55-3.02,8.24-6.74,8.24c-3.72,0-6.74-3.69-6.74-8.24c0-4.55,3.02-8.24,6.74-8.24
			C2263.82,1080.46,2266.84,1084.15,2266.84,1088.7z"/>
		<path class="st24" d="M2323.6,1036.57c9.68,7.67,13.07,19.32,7.58,26.02c-5.49,6.7-17.8,5.92-27.47-1.75s-13.07-19.32-7.58-26.02
			S2313.92,1028.9,2323.6,1036.57z"/>
		<path class="st24" d="M2298.29,1042.85c0,3.33-4.02,6.03-8.99,6.03c-4.96,0-8.99-2.7-8.99-6.03s4.02-6.03,8.99-6.03
			C2294.27,1036.82,2298.29,1039.52,2298.29,1042.85z"/>
		<path class="st24" d="M2325.03,1068.5c0,4.28-3.43,7.76-7.67,7.76c-4.24,0-7.67-3.47-7.67-7.76s3.43-7.76,7.67-7.76
			C2321.6,1060.74,2325.03,1064.21,2325.03,1068.5z"/>
		<path class="st12" d="M2381.13,940.5l4.77-7.57c0,0,8.26-7.29,6.08-10.2c-3.62-4.85-16.19,6.92-16.19,6.92
			S2374.39,940.18,2381.13,940.5z"/>
		<path class="st12" d="M2410.85,940.66c0,0,2.23-18.06,1.8-18.6c-2.4-3-9.97-7.99-12.76-6.86c-2.79,1.13,3.65,10.72,3.65,10.72
			s-4.03,0.84-4.85,4.39C2397.86,933.87,2410.85,940.66,2410.85,940.66z"/>
		<path class="st24" d="M2187.66,1627.89c0,0,5.69,9.55,8.96,13.49c4.22,5.08,9.79,10.22,9.79,10.22s5.33,13.51,6.66,18.16
			c2.97,10.35,6.32,22.83,4.93,28.23c-0.45,1.73-4.26,5.04-7.41,3c-12.14-7.9-44.57-44.92-47.89-54.12
			C2158.87,1636.28,2187.66,1627.89,2187.66,1627.89z"/>
	</g>
</g>
</svg>
